<?xml version="1.0" encoding="utf-8"?>
<!DOCTYPE svg PUBLIC "-//W3C//DTD SVG 1.1//EN" "http://www.w3.org/Graphics/SVG/1.1/DTD/svg11.dtd">
<svg version="1.1" xmlns="http://www.w3.org/2000/svg" xmlns:xlink="http://www.w3.org/1999/xlink" x="0px" y="0px" viewBox="0 0 1000 1000" enable-background="new 0 0 1000 1000" xml:space="preserve">
<g><path fill="#11CD6E" d="M383.6,616.9c-58.7,32.6-67.4-18.3-67.4-18.3l-73.5-170.9c-28.3-81.2,24.5-36.6,24.5-36.6s45.3,34.1,79.6,54.9c34.3,20.8,73.5,6.1,73.5,6.1l480.6-221C812.3,121.3,665.8,49.4,500,49.4c-270.6,0-490,191.2-490,427.1C10,612.2,82.6,733,195.8,811.3l-20.4,116.8c0,0-9.9,34.1,24.5,18.3c23.5-10.8,83.4-49.4,119-73c56,19.5,117.1,30.3,181.1,30.3c270.6,0,490-191.2,490-427.1c0-68.3-18.5-132.9-51.2-190.1C785.6,378.2,429.5,591.4,383.6,616.9L383.6,616.9L383.6,616.9z"/></g>
</svg>