<svg id="22547120-24a9-42b6-b46b-72931aea736b" data-name="圖層 1" xmlns="http://www.w3.org/2000/svg" viewBox="0 0 160 160"><defs><style>.\38 8316a26-6227-4f1b-a573-228f0bd8ec68{fill:#eea818;}.\33 2ad8c9a-adb6-44df-887a-edfa1d5c41c7,.f6891512-8f2e-45d5-8ffb-0e70a7409bd7{fill:#040000;}.\39 8ff5461-d1e8-45d7-8195-03038fe4190a{fill:#fff;}.\33 2ad8c9a-adb6-44df-887a-edfa1d5c41c7{fill-rule:evenodd;}.c423d2c7-3486-4338-8041-43bf9606a03c{fill:#db2329;}</style></defs><title>QPay</title><path class="88316a26-6227-4f1b-a573-228f0bd8ec68" d="M79.89,154.93c-13.54,0-26-4.53-34-11.3-4.06,1.22-9.26,3.17-12.54,5.59-2.81,2.07-2.46,4.18-2,5,2.22,3.75,38.11,2.39,48.48,1.23Z"/><path class="88316a26-6227-4f1b-a573-228f0bd8ec68" d="M79.89,154.93c13.54,0,26-4.53,34-11.3,4.06,1.22,9.26,3.17,12.54,5.59,2.81,2.07,2.46,4.18,2,5-2.22,3.75-38.11,2.39-48.48,1.23Z"/><path class="f6891512-8f2e-45d5-8ffb-0e70a7409bd7" d="M80,73.75a188.23,188.23,0,0,0,46.36-6.14,5.79,5.79,0,0,0,2.22-1.11c0-.21.09-3.64.09-5.41,0-29.86-14.1-59.86-48.76-59.87s-48.76,30-48.76,59.87c0,1.77.09,5.21.09,5.41a4.17,4.17,0,0,0,1.79,1,187.52,187.52,0,0,0,46.8,6.26Z"/><path class="f6891512-8f2e-45d5-8ffb-0e70a7409bd7" d="M140.74,98.63c-1.39-4.46-3.28-9.66-5.19-14.66a5.66,5.66,0,0,0-1.66,0c-17.2,5-38,8.18-53.92,8H79.8c-15.79.19-36.49-3-53.63-7.9A7.81,7.81,0,0,0,24.22,84c-1.92,5-3.81,10.2-5.2,14.66-6.61,21.28-4.47,30.08-2.84,30.28,3.5.42,13.62-16,13.62-16,0,16.7,15.08,42.35,49.62,42.59h.92c34.53-.24,49.62-25.88,49.62-42.59,0,0,10.12,16.44,13.62,16,1.63-.2,3.77-9-2.84-30.28"/><path class="98ff5461-d1e8-45d7-8195-03038fe4190a" d="M67.55,45.34c-4.7.21-8.72-5.14-9-12s3.35-12.51,8-12.72,8.71,5.14,9,12-3.35,12.51-8,12.72"/><path class="98ff5461-d1e8-45d7-8195-03038fe4190a" d="M101.19,33.39c-.25,6.81-4.27,12.17-9,12s-8.3-5.91-8-12.72,4.27-12.17,9-12,8.3,5.91,8.05,12.73"/><path class="88316a26-6227-4f1b-a573-228f0bd8ec68" d="M109.55,55c-1.26-2.78-13.91-5.88-29.58-5.88H79.8c-15.67,0-28.32,3.1-29.58,5.88a.93.93,0,0,0,.08.93c1.06,1.54,15.11,9.17,29.5,9.17H80c14.39,0,28.44-7.63,29.5-9.17a1,1,0,0,0,.17-.54,1,1,0,0,0-.09-.39"/><path class="f6891512-8f2e-45d5-8ffb-0e70a7409bd7" d="M73.33,33.49c.21,2.69-1.26,5.08-3.29,5.34s-3.86-1.71-4.07-4.4,1.26-5.08,3.29-5.34,3.86,1.71,4.07,4.4"/><path class="32ad8c9a-adb6-44df-887a-edfa1d5c41c7" d="M86.25,34.39c.41-.75,3.25-4.66,9.11-3.24a4.55,4.55,0,0,1,2.4,1.14,1.46,1.46,0,0,1,.06,1.39,1.32,1.32,0,0,1-1.87.95,6.24,6.24,0,0,0-8.17,1.19.84.84,0,0,1-1.16,0,1.21,1.21,0,0,1-.36-1.47"/><path class="98ff5461-d1e8-45d7-8195-03038fe4190a" d="M80,91H79.8a186.17,186.17,0,0,1-36.58-3.8A102.74,102.74,0,0,0,42,110.82c1.42,23.82,15.57,38.79,37.4,39h.89c21.83-.22,36-15.19,37.4-39a102.6,102.6,0,0,0-1.18-23.62A186.08,186.08,0,0,1,80,91"/><path class="c423d2c7-3486-4338-8041-43bf9606a03c" d="M49.2,89v23.44a72.9,72.9,0,0,0,21.5.67V91.5A197.69,197.69,0,0,1,49.2,89"/><path class="c423d2c7-3486-4338-8041-43bf9606a03c" d="M128.55,66.51A182.42,182.42,0,0,1,80,73.29H79.8a182.52,182.52,0,0,1-48.59-6.78L24.22,84c17.5,5.28,39.18,8.68,55.58,8.48H80c16.4.2,38.08-3.2,55.58-8.48Z"/></svg>