<?xml version="1.0" encoding="utf-8"?>
<!-- Generator: Adobe Illustrator 19.0.0, SVG Export Plug-In . SVG Version: 6.00 Build 0)  -->
<svg version="1.1" id="图层_1" xmlns="http://www.w3.org/2000/svg" xmlns:xlink="http://www.w3.org/1999/xlink" x="0px" y="0px"
	 viewBox="-7882 2857.2 109.9 40" style="enable-background:new -7882 2857.2 109.9 40;" xml:space="preserve">
<style type="text/css">
	.st0{fill:#00B700;}
	.st1{fill:#394144;}
</style>
<path class="st0" d="M-7869.9,2880.1c-0.5,0.3-1.2,0.1-1.5-0.4l-0.1-0.2l-3-6.6c0-0.1-0.1-0.2-0.1-0.2c0-0.3,0.2-0.6,0.6-0.6
	c0,0,0,0,0,0c0.1,0,0.2,0,0.3,0.1l3.6,2.5c0.4,0.3,1,0.4,1.5,0.2l16.8-7.5c-3-3.6-8-5.9-13.6-5.9c-9.2,0-16.6,6.2-16.6,13.9
	c0,4.2,2.2,7.9,5.8,10.5c0.3,0.2,0.5,0.5,0.5,0.9c0,0.1,0,0.2-0.1,0.4l-0.8,2.8c0,0.1-0.1,0.3-0.1,0.4c0,0.3,0.2,0.6,0.6,0.6
	c0.1,0,0.2,0,0.3-0.1l3.6-2.1c0.3-0.2,0.6-0.3,0.9-0.3c0.2,0,0.3,0,0.5,0.1c1.8,0.5,3.6,0.8,5.4,0.8c9.2,0,16.6-6.2,16.6-13.9
	c0-2.3-0.7-4.5-1.9-6.4l-19.2,11.1L-7869.9,2880.1L-7869.9,2880.1z"/>
<path class="st1" d="M-7821.1,2873.7h8.8v0.7h-8.8V2873.7 M-7821.1,2876.2h8.8v0.8h-8.8V2876.2 M-7820.9,2883.9h8.3v-4.7h-8.3
	V2883.9 M-7820.1,2879.9h6.7v3.2h-6.7V2879.9 M-7826.4,2876.5l0.4,0.8c0.5-0.8,1-1.6,1.5-2.6v9.3h0.8v-11c0.5-1.1,0.9-2.2,1.3-3.4
	l-0.7-0.4C-7823.7,2871.8-7824.9,2874.2-7826.4,2876.5z M-7816.7,2871.2l0.6-0.4c-0.1-0.3-0.7-1.4-0.8-1.7l-0.7,0.4
	c0.3,0.5,0.5,1,0.7,1.5c0,0.1,0.1,0.1,0.1,0.2h-5.2v0.8h10.6v-0.8H-7816.7 M-7833.4,2870.6h-0.7v2.8h-1.5v-4h-0.7v4h-1.6v-2.8h-0.7
	v3.5h5.4V2870.6 M-7838.6,2875.7h4.8v0.7h-4.8V2875.7 M-7833.1,2880l-1.2,1.1v-3h-4v1.2c0.1,1.7-0.3,2.8-1.2,3.5l0.4,0.7
	c1.2-0.9,1.7-2.3,1.6-4v-0.7h2.5v1.8c0,0.6-0.1,0.8-0.3,1.1l0.5,0.8c0.4-0.3,1.1-0.9,2.2-1.9L-7833.1,2880 M-7839.3,2869.6l-0.7-0.4
	c-0.7,1.4-1.6,2.8-2.8,3.9l0.4,0.8C-7841,2872.7-7840,2871.2-7839.3,2869.6 M-7840.1,2873.3c-0.7,1.8-1.7,3.4-2.9,4.8l0.4,0.7
	c0.5-0.6,1-1.2,1.4-1.8v6.9h0.7v-8.2c0.4-0.7,0.7-1.4,1-2.1L-7840.1,2873.3"/>
<path class="st1" d="M-7830.4,2869.2h-0.8c-0.5,2.4-1.3,4.5-2.3,6.1l0.5,0.8l0.3-0.7c0.2-0.3,0.3-0.5,0.4-0.7
	c0.2,2.2,0.7,3.9,1.3,5.2c-0.6,1-1.5,2.1-2.7,3.1l0.4,0.8c1.3-1.2,2.1-2.2,2.6-3.1c0.7,1.1,1.5,2.2,2.5,3.1l0.5-0.8
	c-1.1-1-2-2.1-2.5-3.1c0.9-1.6,1.5-4,1.7-7.2h0.9v-0.8h-3.5C-7830.9,2871.2-7830.5,2870.1-7830.4,2869.2z M-7829.2,2872.9
	c-0.2,2.6-0.6,4.7-1.3,6.2c-0.5-1.4-0.9-3.2-1.2-5.5c0.1-0.3,0.2-0.5,0.3-0.7L-7829.2,2872.9z M-7787.9,2875.9
	c0.9,1.3,2,3.2,2.5,4.3l0.7-0.4c-0.5-1-1.7-2.8-2.6-4.1L-7787.9,2875.9z M-7797.1,2875.7l-0.5-0.3l-0.2,0h-4.2v-2.9h6.4v-0.8h-6.4
	v-2.7h-0.8v2.7h-6.4v0.8h6.4v2.9h-4.4v0.8c0.9,1.9,2.3,3.6,4.1,4.8c-1.9,1.1-4.2,1.8-6.5,2.2l0.2,0.7l0,0c2.5-0.5,4.9-1.3,7-2.5
	c1.9,1.2,4.3,2,7,2.4l0-0.1l0.2-0.7c-2.5-0.4-4.7-1.1-6.5-2.2C-7799.7,2879.7-7798.1,2878-7797.1,2875.7z M-7806.3,2876.1h8
	c-0.9,1.8-2.3,3.3-4.1,4.4C-7804.1,2879.4-7805.4,2877.9-7806.3,2876.1z M-7789.6,2869c-1,2.6-2.5,5.1-4.2,6.8l0.3,0.8c0,0,0,0,0,0
	c0.7-0.8,1.4-1.6,2-2.4v9.7h0.8V2873c0.7-1.2,1.3-2.5,1.8-3.8L-7789.6,2869z"/>
<path class="st1" d="M-7781.5,2872.6v-3.6h-0.8v3.6h-6.9v0.8h6.9v9.3c0,0.4-0.1,0.5-0.5,0.5c-0.3,0-0.6,0.1-1.5,0.1v0.7
	c1.2,0,1.6,0,2-0.1c0.5-0.1,0.8-0.4,0.8-1.2v-9.3h2.2v-0.8C-7779.3,2872.6-7781.5,2872.6-7781.5,2872.6z"/>
</svg>
